<svg width="299" height="63" viewBox="0 0 299 63" fill="none" xmlns="http://www.w3.org/2000/svg">
<rect y="9" width="50" height="50" rx="25" fill="#F5F5F5"/>
<path d="M16.016 49.144C15.792 49.144 15.568 49.096 15.344 49C15.152 48.904 15.056 48.744 15.056 48.52C15.056 48.264 15.168 48.072 15.392 47.944C15.616 47.816 15.872 47.704 16.16 47.608C16.608 47.448 17.04 47.272 17.456 47.08C17.872 46.856 18.08 46.424 18.08 45.784V35.032C18.08 34.296 17.984 33.656 17.792 33.112C17.6 32.536 17.152 32.2 16.448 32.104C16.32 32.072 16.208 32.008 16.112 31.912C16.016 31.784 15.968 31.576 15.968 31.288C15.968 30.904 16.112 30.664 16.4 30.568C17.232 30.376 18.016 30.152 18.752 29.896C19.52 29.64 20.24 29.352 20.912 29.032C21.616 28.712 22.256 28.392 22.832 28.072C22.928 28.008 23.024 27.944 23.12 27.88C23.216 27.816 23.312 27.784 23.408 27.784C23.664 27.784 23.792 27.944 23.792 28.264C23.792 28.52 23.744 28.968 23.648 29.608C23.584 30.216 23.552 30.744 23.552 31.192C23.552 31.512 23.584 31.704 23.648 31.768H23.744C24.64 30.904 25.664 30.152 26.816 29.512C28 28.872 29.392 28.552 30.992 28.552C32.016 28.552 32.928 28.872 33.728 29.512C34.56 30.12 35.2 30.984 35.648 32.104H35.84C36.8 31.016 37.904 30.152 39.152 29.512C40.4 28.872 41.776 28.552 43.28 28.552C44.304 28.552 45.2 28.856 45.968 29.464C46.736 30.04 47.344 30.84 47.792 31.864C48.24 32.888 48.464 34.056 48.464 35.368V45.832C48.464 46.472 48.656 46.888 49.04 47.08C49.424 47.272 49.856 47.448 50.336 47.608C50.624 47.704 50.864 47.816 51.056 47.944C51.28 48.072 51.392 48.264 51.392 48.52C51.392 48.712 51.312 48.872 51.152 49C50.992 49.096 50.768 49.144 50.48 49.144C49.84 49.144 49.264 49.112 48.752 49.048C48.272 49.016 47.808 48.984 47.36 48.952C46.912 48.92 46.4 48.904 45.824 48.904C45.28 48.904 44.784 48.92 44.336 48.952C43.92 48.984 43.488 49.016 43.04 49.048C42.592 49.112 42.048 49.144 41.408 49.144C41.152 49.144 40.944 49.096 40.784 49C40.624 48.872 40.544 48.712 40.544 48.52C40.544 48.264 40.64 48.072 40.832 47.944C41.024 47.816 41.264 47.704 41.552 47.608C42 47.48 42.368 47.32 42.656 47.128C42.944 46.904 43.088 46.52 43.088 45.976V36.088C43.088 35.288 42.96 34.584 42.704 33.976C42.448 33.368 42.08 32.888 41.6 32.536C41.152 32.152 40.64 31.96 40.064 31.96C39.52 31.96 38.96 32.056 38.384 32.248C37.84 32.408 37.312 32.696 36.8 33.112C36.192 33.624 35.888 34.456 35.888 35.608V45.832C35.888 46.472 36.048 46.904 36.368 47.128C36.72 47.32 37.136 47.48 37.616 47.608C37.872 47.704 38.096 47.816 38.288 47.944C38.512 48.072 38.624 48.264 38.624 48.52C38.624 48.712 38.528 48.872 38.336 49C38.176 49.096 37.984 49.144 37.76 49.144C37.12 49.144 36.56 49.112 36.08 49.048C35.632 49.016 35.2 48.984 34.784 48.952C34.368 48.92 33.872 48.904 33.296 48.904C32.752 48.904 32.256 48.92 31.808 48.952C31.392 48.984 30.944 49.016 30.464 49.048C30.016 49.112 29.472 49.144 28.832 49.144C28.608 49.144 28.4 49.096 28.208 49C28.048 48.872 27.968 48.712 27.968 48.52C27.968 48.264 28.064 48.072 28.256 47.944C28.48 47.816 28.72 47.704 28.976 47.608C29.424 47.48 29.792 47.32 30.08 47.128C30.4 46.904 30.56 46.52 30.56 45.976V36.088C30.56 35.288 30.432 34.584 30.176 33.976C29.92 33.368 29.552 32.888 29.072 32.536C28.624 32.152 28.112 31.96 27.536 31.96C26.992 31.96 26.448 32.056 25.904 32.248C25.36 32.408 24.8 32.696 24.224 33.112C23.68 33.528 23.408 34.328 23.408 35.512V45.832C23.408 46.408 23.536 46.808 23.792 47.032C24.08 47.256 24.464 47.448 24.944 47.608C25.2 47.704 25.424 47.816 25.616 47.944C25.84 48.072 25.952 48.264 25.952 48.52C25.952 48.712 25.872 48.872 25.712 49C25.552 49.096 25.344 49.144 25.088 49.144C24.448 49.144 23.904 49.112 23.456 49.048C23.008 49.016 22.576 48.984 22.16 48.952C21.744 48.92 21.248 48.904 20.672 48.904C20.128 48.904 19.616 48.92 19.136 48.952C18.688 48.984 18.208 49.016 17.696 49.048C17.216 49.112 16.656 49.144 16.016 49.144Z" fill="black"/>
<path d="M58.25 49.672C57.482 49.672 56.746 49.464 56.042 49.048C55.37 48.632 54.826 48.088 54.41 47.416C53.994 46.744 53.786 46.056 53.786 45.352C53.786 44.264 54.106 43.384 54.746 42.712C55.386 42.008 56.346 41.384 57.626 40.84L62.09 38.92C62.73 38.664 63.114 38.424 63.242 38.2C63.402 37.976 63.482 37.56 63.482 36.952L63.578 34.12C63.61 33.224 63.418 32.504 63.002 31.96C62.618 31.416 62.026 31.144 61.226 31.144C60.81 31.144 60.378 31.224 59.93 31.384C59.482 31.544 59.13 31.752 58.874 32.008C58.746 32.136 58.65 32.312 58.586 32.536C58.554 32.728 58.538 32.92 58.538 33.112C58.538 33.272 58.538 33.48 58.538 33.736C58.57 33.96 58.586 34.168 58.586 34.36C58.586 34.552 58.346 34.792 57.866 35.08C57.386 35.368 56.842 35.624 56.234 35.848C55.626 36.072 55.114 36.184 54.698 36.184C54.474 36.184 54.298 36.104 54.17 35.944C54.042 35.784 53.978 35.592 53.978 35.368C53.978 34.856 54.138 34.344 54.458 33.832C54.81 33.288 55.354 32.712 56.09 32.104C56.89 31.432 57.77 30.84 58.73 30.328C59.69 29.784 60.618 29.352 61.514 29.032C62.442 28.712 63.242 28.552 63.914 28.552C65.45 28.552 66.682 29.064 67.61 30.088C68.538 31.08 68.986 32.392 68.954 34.024L68.714 44.296C68.682 45 68.81 45.592 69.098 46.072C69.418 46.552 69.802 46.792 70.25 46.792C70.922 46.792 71.466 46.6 71.882 46.216C72.01 46.088 72.122 46.024 72.218 46.024C72.378 46.024 72.506 46.088 72.602 46.216C72.73 46.312 72.794 46.44 72.794 46.6C72.794 46.952 72.538 47.384 72.026 47.896C71.45 48.472 70.826 48.904 70.154 49.192C69.514 49.512 68.874 49.672 68.234 49.672C66.538 49.672 65.162 48.792 64.106 47.032H63.962C62.906 47.96 61.93 48.632 61.034 49.048C60.17 49.464 59.242 49.672 58.25 49.672ZM60.89 46.792C61.338 46.792 61.722 46.728 62.042 46.6C62.362 46.44 62.634 46.232 62.858 45.976C62.986 45.816 63.082 45.624 63.146 45.4C63.242 45.176 63.306 44.856 63.338 44.44L63.434 41.368C63.466 41.048 63.434 40.84 63.338 40.744C63.242 40.616 63.13 40.552 63.002 40.552C62.938 40.552 62.842 40.568 62.714 40.6C62.586 40.6 62.442 40.648 62.282 40.744C61.098 41.224 60.25 41.736 59.738 42.28C59.226 42.824 58.97 43.528 58.97 44.392C58.97 45.256 59.178 45.88 59.594 46.264C60.01 46.616 60.442 46.792 60.89 46.792ZM74.7526 49.144C74.4966 49.144 74.2726 49.096 74.0806 49C73.8886 48.872 73.7926 48.712 73.7926 48.52C73.7926 48.264 73.8886 48.072 74.0806 47.944C74.3046 47.816 74.5766 47.704 74.8966 47.608C75.5686 47.416 76.0326 47.192 76.2886 46.936C76.5766 46.648 76.7206 46.264 76.7206 45.784V34.984C76.7206 34.248 76.6086 33.64 76.3846 33.16C76.1926 32.648 75.7606 32.312 75.0886 32.152C74.9606 32.088 74.8326 32.008 74.7046 31.912C74.5766 31.784 74.5126 31.608 74.5126 31.384C74.5126 30.968 74.6886 30.712 75.0406 30.616C76.0006 30.36 77.0406 30.024 78.1606 29.608C79.2806 29.16 80.2246 28.728 80.9926 28.312C81.1526 28.216 81.3286 28.12 81.5206 28.024C81.7126 27.928 81.8566 27.88 81.9526 27.88C82.2086 27.88 82.3366 28.04 82.3366 28.36C82.3366 28.488 82.3206 28.776 82.2886 29.224C82.2886 29.672 82.2726 30.168 82.2406 30.712C82.2406 31.224 82.2246 31.688 82.1926 32.104C82.1926 32.296 82.2406 32.392 82.3366 32.392C82.8486 31.72 83.4246 31.096 84.0646 30.52C84.7046 29.944 85.3766 29.464 86.0806 29.08C86.8166 28.696 87.5526 28.504 88.2886 28.504C89.2166 28.504 89.9046 28.696 90.3526 29.08C90.8326 29.464 91.0726 29.944 91.0726 30.52C91.0726 30.968 90.9446 31.448 90.6886 31.96C90.4646 32.472 90.1606 32.92 89.7766 33.304C89.4246 33.656 89.0246 33.832 88.5766 33.832C88.3206 33.832 88.0486 33.784 87.7606 33.688C87.4726 33.56 87.1846 33.416 86.8966 33.256C86.6086 33.128 86.3046 33 85.9846 32.872C85.6966 32.744 85.4246 32.68 85.1686 32.68C84.3686 32.68 83.6486 32.984 83.0086 33.592C82.3686 34.168 82.0486 35.32 82.0486 37.048V45.496C82.0486 46.072 82.2566 46.52 82.6726 46.84C83.0886 47.128 83.7286 47.4 84.5926 47.656C84.9446 47.752 85.2006 47.864 85.3606 47.992C85.5526 48.088 85.6486 48.264 85.6486 48.52C85.6486 48.936 85.3606 49.144 84.7846 49.144C83.8246 49.144 82.9126 49.096 82.0486 49C81.2166 48.936 80.3846 48.904 79.5526 48.904C79.0086 48.904 78.4806 48.92 77.9686 48.952C77.4886 48.984 76.9926 49.016 76.4806 49.048C75.9686 49.112 75.3926 49.144 74.7526 49.144ZM101.282 62.872C98.274 62.872 95.922 62.376 94.226 61.384C92.53 60.392 91.682 59.032 91.682 57.304C91.682 56.408 91.794 55.656 92.018 55.048C92.274 54.472 92.77 53.928 93.506 53.416C94.05 53 94.642 52.536 95.282 52.024C95.922 51.544 96.514 51.096 97.058 50.68L99.314 51.256C98.13 51.96 97.25 52.68 96.674 53.416C96.098 54.184 95.81 55.08 95.81 56.104C95.81 57.384 96.354 58.456 97.442 59.32C98.562 60.184 99.97 60.616 101.666 60.616C103.746 60.616 105.282 60.184 106.274 59.32C106.946 58.744 107.474 58.056 107.858 57.256C108.242 56.456 108.434 55.64 108.434 54.808C108.434 54.2 108.226 53.704 107.81 53.32C107.426 52.968 106.754 52.664 105.794 52.408C104.834 52.184 103.522 52.008 101.858 51.88C98.626 51.592 96.338 51.032 94.994 50.2C93.682 49.4 93.026 48.28 93.026 46.84C93.026 46.552 93.106 46.264 93.266 45.976C93.458 45.656 93.794 45.336 94.274 45.016C94.85 44.568 95.33 44.2 95.714 43.912C96.13 43.624 96.466 43.352 96.722 43.096C96.978 42.84 97.17 42.584 97.298 42.328L99.41 43.192C98.738 43.416 98.178 43.736 97.73 44.152C97.314 44.536 97.106 44.888 97.106 45.208C97.106 45.56 97.33 45.88 97.778 46.168C98.226 46.424 98.93 46.632 99.89 46.792C100.85 46.952 102.146 47.096 103.778 47.224C107.074 47.448 109.474 47.96 110.978 48.76C112.514 49.528 113.282 50.664 113.282 52.168C113.282 53.48 112.93 54.76 112.226 56.008C111.522 57.288 110.594 58.44 109.442 59.464C108.29 60.52 107.01 61.352 105.602 61.96C104.194 62.568 102.754 62.872 101.282 62.872ZM101.906 42.28C102.962 42.28 103.826 41.704 104.498 40.552C105.17 39.368 105.506 37.848 105.506 35.992C105.506 34.904 105.33 33.928 104.978 33.064C104.658 32.2 104.21 31.528 103.634 31.048C103.058 30.536 102.402 30.28 101.666 30.28C100.994 30.28 100.37 30.536 99.794 31.048C99.25 31.56 98.818 32.248 98.498 33.112C98.178 33.944 98.018 34.888 98.018 35.944C98.018 37.128 98.178 38.2 98.498 39.16C98.85 40.12 99.33 40.888 99.938 41.464C100.546 42.008 101.202 42.28 101.906 42.28ZM101.474 44.248C100.066 44.248 98.706 43.912 97.394 43.24C96.114 42.536 95.058 41.608 94.226 40.456C93.394 39.272 92.978 37.944 92.978 36.472C92.978 34.904 93.41 33.528 94.274 32.344C95.138 31.128 96.274 30.184 97.682 29.512C99.09 28.808 100.594 28.456 102.194 28.456C103.154 28.456 104.05 28.584 104.882 28.84C105.714 29.064 106.594 29.256 107.522 29.416C108.194 29.576 108.802 29.688 109.346 29.752C109.89 29.816 110.482 29.848 111.122 29.848C111.57 29.848 112.05 29.832 112.562 29.8C113.106 29.736 113.506 29.704 113.762 29.704C114.242 29.704 114.482 30.024 114.482 30.664C114.482 31.144 114.29 31.624 113.906 32.104C113.746 32.296 113.57 32.392 113.378 32.392H112.082C111.25 32.392 110.722 32.52 110.498 32.776C110.434 32.872 110.386 32.984 110.354 33.112C110.322 33.24 110.29 33.448 110.258 33.736C110.258 34.024 110.258 34.456 110.258 35.032C110.258 36.696 109.842 38.232 109.01 39.64C108.21 41.016 107.138 42.136 105.794 43C104.482 43.832 103.042 44.248 101.474 44.248ZM116.092 49.144C115.836 49.144 115.628 49.096 115.468 49C115.308 48.872 115.228 48.712 115.228 48.52C115.228 48.264 115.324 48.072 115.516 47.944C115.708 47.816 115.932 47.72 116.188 47.656C116.956 47.464 117.5 47.256 117.82 47.032C118.172 46.808 118.348 46.424 118.348 45.88V35.464C118.348 34.44 118.188 33.672 117.868 33.16C117.548 32.648 117.004 32.328 116.236 32.2C116.076 32.168 115.948 32.088 115.852 31.96C115.756 31.8 115.708 31.624 115.708 31.432C115.708 30.984 115.884 30.744 116.236 30.712C117.772 30.392 119.1 29.96 120.22 29.416C121.372 28.84 122.252 28.392 122.86 28.072C123.308 27.848 123.596 27.736 123.724 27.736C124.076 27.736 124.252 27.896 124.252 28.216C124.22 28.664 124.156 29.288 124.06 30.088C123.964 30.856 123.868 31.688 123.772 32.584C123.708 33.448 123.676 34.264 123.676 35.032V45.832C123.676 46.312 123.852 46.68 124.204 46.936C124.556 47.192 125.116 47.432 125.884 47.656C126.14 47.752 126.364 47.864 126.556 47.992C126.748 48.088 126.844 48.264 126.844 48.52C126.844 48.904 126.572 49.096 126.028 49.096C125.42 49.096 124.828 49.08 124.252 49.048C123.708 49.016 123.164 48.984 122.62 48.952C122.108 48.92 121.564 48.904 120.988 48.904C120.444 48.904 119.916 48.92 119.404 48.952C118.892 48.984 118.364 49.016 117.82 49.048C117.308 49.112 116.732 49.144 116.092 49.144ZM120.892 24.952C119.964 24.952 119.18 24.632 118.54 23.992C117.9 23.352 117.58 22.584 117.58 21.688C117.58 20.696 117.9 19.88 118.54 19.24C119.18 18.6 119.964 18.28 120.892 18.28C121.852 18.28 122.652 18.6 123.292 19.24C123.932 19.88 124.252 20.696 124.252 21.688C124.252 22.584 123.932 23.352 123.292 23.992C122.652 24.632 121.852 24.952 120.892 24.952ZM129.594 49.144C129.338 49.144 129.114 49.096 128.922 49C128.73 48.872 128.634 48.712 128.634 48.52C128.634 48.264 128.73 48.072 128.922 47.944C129.146 47.816 129.418 47.704 129.738 47.608C130.218 47.48 130.65 47.304 131.034 47.08C131.45 46.856 131.658 46.424 131.658 45.784V35.032C131.658 34.296 131.546 33.672 131.322 33.16C131.13 32.616 130.698 32.264 130.026 32.104C129.898 32.04 129.786 31.96 129.69 31.864C129.594 31.736 129.546 31.544 129.546 31.288C129.546 30.872 129.69 30.632 129.978 30.568C131.098 30.312 132.202 29.976 133.29 29.56C134.41 29.112 135.386 28.648 136.218 28.168C136.346 28.104 136.474 28.024 136.602 27.928C136.73 27.832 136.858 27.784 136.986 27.784C137.146 27.784 137.242 27.848 137.274 27.976C137.338 28.072 137.37 28.184 137.37 28.312C137.37 28.536 137.322 28.952 137.226 29.56C137.162 30.168 137.13 30.696 137.13 31.144C137.13 31.272 137.13 31.416 137.13 31.576C137.162 31.704 137.194 31.784 137.226 31.816C138.314 30.792 139.434 29.992 140.586 29.416C141.77 28.84 143.098 28.552 144.57 28.552C146.202 28.552 147.562 29.176 148.65 30.424C149.77 31.672 150.33 33.32 150.33 35.368V45.832C150.33 46.472 150.522 46.888 150.906 47.08C151.29 47.272 151.722 47.448 152.202 47.608C152.458 47.704 152.698 47.832 152.922 47.992C153.146 48.12 153.258 48.312 153.258 48.568C153.258 48.76 153.146 48.904 152.922 49C152.73 49.096 152.538 49.144 152.346 49.144C151.706 49.144 151.146 49.112 150.666 49.048C150.186 49.016 149.706 48.984 149.226 48.952C148.778 48.92 148.266 48.904 147.69 48.904C147.146 48.904 146.634 48.92 146.154 48.952C145.674 48.984 145.178 49.016 144.666 49.048C144.186 49.112 143.626 49.144 142.986 49.144C142.826 49.144 142.65 49.096 142.458 49C142.266 48.904 142.17 48.76 142.17 48.568C142.17 48.312 142.266 48.12 142.458 47.992C142.65 47.832 142.874 47.704 143.13 47.608C143.61 47.448 144.026 47.272 144.378 47.08C144.762 46.888 144.954 46.472 144.954 45.832V36.088C144.954 34.808 144.634 33.8 143.994 33.064C143.386 32.328 142.554 31.96 141.498 31.96C140.634 31.96 139.882 32.088 139.242 32.344C138.602 32.6 137.978 32.968 137.37 33.448C137.242 33.544 137.146 33.688 137.082 33.88C137.018 34.04 136.986 34.216 136.986 34.408V45.832C136.986 46.472 137.162 46.904 137.514 47.128C137.898 47.32 138.33 47.48 138.81 47.608C139.482 47.832 139.818 48.136 139.818 48.52C139.818 48.712 139.738 48.872 139.578 49C139.418 49.096 139.21 49.144 138.954 49.144C138.314 49.144 137.754 49.112 137.274 49.048C136.794 49.016 136.33 48.984 135.882 48.952C135.434 48.92 134.922 48.904 134.346 48.904C133.802 48.904 133.29 48.92 132.81 48.952C132.33 48.984 131.834 49.016 131.322 49.048C130.81 49.112 130.234 49.144 129.594 49.144ZM161.693 49.672C160.669 49.672 159.677 49.528 158.717 49.24C157.789 48.984 156.941 48.584 156.173 48.04C155.949 47.592 155.773 46.888 155.645 45.928C155.549 44.968 155.501 44.024 155.501 43.096C155.501 42.712 155.773 42.52 156.317 42.52C156.541 42.52 156.733 42.584 156.893 42.712C157.053 42.84 157.165 42.984 157.229 43.144C157.773 44.552 158.461 45.688 159.293 46.552C160.125 47.384 161.069 47.8 162.125 47.8C163.021 47.8 163.725 47.528 164.237 46.984C164.749 46.408 165.005 45.752 165.005 45.016C165.005 44.152 164.685 43.432 164.045 42.856C163.437 42.28 162.589 41.688 161.501 41.08C160.509 40.536 159.613 39.96 158.813 39.352C158.045 38.744 157.437 38.056 156.989 37.288C156.541 36.488 156.317 35.56 156.317 34.504C156.317 33.32 156.621 32.28 157.229 31.384C157.837 30.488 158.685 29.784 159.773 29.272C160.893 28.76 162.173 28.504 163.613 28.504C164.637 28.504 165.549 28.616 166.349 28.84C167.181 29.064 167.757 29.288 168.077 29.512C168.333 29.832 168.541 30.424 168.701 31.288C168.861 32.12 168.941 33 168.941 33.928C168.941 34.216 168.701 34.36 168.221 34.36C167.997 34.36 167.773 34.296 167.549 34.168C167.325 34.04 167.181 33.912 167.117 33.784C166.701 32.6 166.173 31.704 165.533 31.096C164.893 30.488 164.157 30.184 163.325 30.184C162.589 30.184 161.917 30.424 161.309 30.904C160.733 31.352 160.445 31.992 160.445 32.824C160.445 33.496 160.717 34.104 161.261 34.648C161.837 35.192 162.653 35.752 163.709 36.328C165.725 37.416 167.181 38.456 168.077 39.448C168.973 40.408 169.421 41.704 169.421 43.336C169.421 45.288 168.749 46.84 167.405 47.992C166.061 49.112 164.157 49.672 161.693 49.672ZM192.762 50.344C192.634 50.344 192.506 50.296 192.378 50.2C192.25 50.136 192.17 50.04 192.138 49.912L185.274 33.064C185.018 32.392 184.666 31.832 184.218 31.384C183.802 30.904 183.322 30.584 182.778 30.424C182.49 30.296 182.25 30.168 182.058 30.04C181.898 29.912 181.818 29.704 181.818 29.416C181.818 29.192 181.946 29.064 182.202 29.032C182.49 28.968 182.73 28.936 182.922 28.936C183.53 28.936 184.042 28.952 184.458 28.984C184.906 29.016 185.322 29.064 185.706 29.128C186.122 29.16 186.618 29.176 187.194 29.176C187.802 29.176 188.33 29.16 188.778 29.128C189.226 29.064 189.674 29.016 190.122 28.984C190.602 28.952 191.162 28.936 191.802 28.936C191.994 28.936 192.218 28.968 192.474 29.032C192.73 29.096 192.858 29.256 192.858 29.512C192.858 29.768 192.746 29.96 192.522 30.088C192.298 30.184 192.058 30.28 191.802 30.376C191.45 30.504 191.194 30.728 191.034 31.048C190.874 31.336 190.794 31.752 190.794 32.296C190.794 32.808 190.89 33.32 191.082 33.832L194.202 42.04C194.202 42.104 194.25 42.136 194.346 42.136C194.442 42.136 194.49 42.104 194.49 42.04L197.706 34.408C197.802 34.152 197.866 33.88 197.898 33.592C197.962 33.304 197.994 33.016 197.994 32.728C197.994 32.248 197.786 31.8 197.37 31.384C196.986 30.968 196.522 30.648 195.978 30.424C195.69 30.328 195.45 30.216 195.258 30.088C195.066 29.928 194.97 29.72 194.97 29.464C194.97 29.24 195.098 29.096 195.354 29.032C195.642 28.968 195.914 28.936 196.17 28.936C196.842 28.936 197.514 28.984 198.186 29.08C198.89 29.144 199.562 29.176 200.202 29.176C201.066 29.176 201.834 29.144 202.506 29.08C203.21 28.984 203.946 28.936 204.714 28.936C204.906 28.936 205.13 28.984 205.386 29.08C205.642 29.144 205.77 29.288 205.77 29.512C205.77 29.768 205.658 29.96 205.434 30.088C205.21 30.184 204.97 30.296 204.714 30.424C204.362 30.552 204.042 30.728 203.754 30.952C203.498 31.176 203.37 31.528 203.37 32.008C203.37 32.328 203.402 32.648 203.466 32.968C203.562 33.288 203.658 33.576 203.754 33.832L206.874 41.896C206.938 42.088 207.002 42.184 207.066 42.184C207.162 42.184 207.242 42.104 207.306 41.944L210.282 34.504C210.41 34.216 210.506 33.896 210.57 33.544C210.634 33.16 210.65 32.84 210.618 32.584C210.618 32.04 210.474 31.592 210.186 31.24C209.898 30.856 209.546 30.6 209.13 30.472C208.874 30.376 208.634 30.264 208.41 30.136C208.186 30.008 208.074 29.816 208.074 29.56C208.074 29.336 208.202 29.192 208.458 29.128C208.714 29.032 208.938 28.984 209.13 28.984C209.962 29.016 210.586 29.064 211.002 29.128C211.418 29.16 211.93 29.176 212.538 29.176C212.954 29.176 213.274 29.16 213.498 29.128C213.754 29.096 214.026 29.08 214.314 29.08C214.634 29.048 215.034 29.016 215.514 28.984C215.738 28.984 215.978 29.016 216.234 29.08C216.49 29.144 216.618 29.288 216.618 29.512C216.618 29.768 216.522 29.976 216.33 30.136C216.17 30.264 215.946 30.376 215.658 30.472C215.114 30.664 214.602 31.048 214.122 31.624C213.674 32.168 213.29 32.808 212.97 33.544L206.25 49.912C206.154 50.168 205.93 50.296 205.578 50.296C205.322 50.296 205.114 50.168 204.954 49.912L199.29 36.616C199.258 36.456 199.194 36.376 199.098 36.376C199.034 36.376 198.97 36.456 198.906 36.616L193.434 49.912C193.306 50.2 193.082 50.344 192.762 50.344ZM221.656 49.672C220.888 49.672 220.152 49.464 219.448 49.048C218.776 48.632 218.232 48.088 217.816 47.416C217.4 46.744 217.192 46.056 217.192 45.352C217.192 44.264 217.512 43.384 218.152 42.712C218.792 42.008 219.752 41.384 221.032 40.84L225.496 38.92C226.136 38.664 226.52 38.424 226.648 38.2C226.808 37.976 226.888 37.56 226.888 36.952L226.984 34.12C227.016 33.224 226.824 32.504 226.408 31.96C226.024 31.416 225.432 31.144 224.632 31.144C224.216 31.144 223.784 31.224 223.336 31.384C222.888 31.544 222.536 31.752 222.28 32.008C222.152 32.136 222.056 32.312 221.992 32.536C221.96 32.728 221.944 32.92 221.944 33.112C221.944 33.272 221.944 33.48 221.944 33.736C221.976 33.96 221.992 34.168 221.992 34.36C221.992 34.552 221.752 34.792 221.272 35.08C220.792 35.368 220.248 35.624 219.64 35.848C219.032 36.072 218.52 36.184 218.104 36.184C217.88 36.184 217.704 36.104 217.576 35.944C217.448 35.784 217.384 35.592 217.384 35.368C217.384 34.856 217.544 34.344 217.864 33.832C218.216 33.288 218.76 32.712 219.496 32.104C220.296 31.432 221.176 30.84 222.136 30.328C223.096 29.784 224.024 29.352 224.92 29.032C225.848 28.712 226.648 28.552 227.32 28.552C228.856 28.552 230.088 29.064 231.016 30.088C231.944 31.08 232.392 32.392 232.36 34.024L232.12 44.296C232.088 45 232.216 45.592 232.504 46.072C232.824 46.552 233.208 46.792 233.656 46.792C234.328 46.792 234.872 46.6 235.288 46.216C235.416 46.088 235.528 46.024 235.624 46.024C235.784 46.024 235.912 46.088 236.008 46.216C236.136 46.312 236.2 46.44 236.2 46.6C236.2 46.952 235.944 47.384 235.432 47.896C234.856 48.472 234.232 48.904 233.56 49.192C232.92 49.512 232.28 49.672 231.64 49.672C229.944 49.672 228.568 48.792 227.512 47.032H227.368C226.312 47.96 225.336 48.632 224.44 49.048C223.576 49.464 222.648 49.672 221.656 49.672ZM224.296 46.792C224.744 46.792 225.128 46.728 225.448 46.6C225.768 46.44 226.04 46.232 226.264 45.976C226.392 45.816 226.488 45.624 226.552 45.4C226.648 45.176 226.712 44.856 226.744 44.44L226.84 41.368C226.872 41.048 226.84 40.84 226.744 40.744C226.648 40.616 226.536 40.552 226.408 40.552C226.344 40.552 226.248 40.568 226.12 40.6C225.992 40.6 225.848 40.648 225.688 40.744C224.504 41.224 223.656 41.736 223.144 42.28C222.632 42.824 222.376 43.528 222.376 44.392C222.376 45.256 222.584 45.88 223 46.264C223.416 46.616 223.848 46.792 224.296 46.792ZM246.079 49.672C244.159 49.672 242.703 49.16 241.711 48.136C240.719 47.112 240.223 45.624 240.223 43.672V32.584C240.223 32.328 240.111 32.136 239.887 32.008C239.695 31.88 239.295 31.8 238.687 31.768H238.159C237.967 31.768 237.807 31.624 237.679 31.336C237.551 31.016 237.487 30.712 237.487 30.424C237.487 30.36 237.503 30.28 237.535 30.184C237.599 30.056 237.679 29.976 237.775 29.944C238.511 29.624 239.263 29.192 240.031 28.648C240.799 28.072 241.519 27.496 242.191 26.92C242.863 26.312 243.423 25.8 243.871 25.384C244.095 25.224 244.271 25.08 244.399 24.952C244.559 24.824 244.735 24.76 244.927 24.76C245.183 24.76 245.375 24.824 245.503 24.952C245.663 25.048 245.711 25.256 245.647 25.576L245.359 28.216C245.327 28.6 245.407 28.856 245.599 28.984C245.823 29.112 246.127 29.176 246.511 29.176H252.175C252.271 29.176 252.367 29.288 252.463 29.512C252.559 29.736 252.607 29.96 252.607 30.184C252.607 30.6 252.543 30.984 252.415 31.336C252.319 31.688 252.191 31.864 252.031 31.864H247.471C246.735 31.864 246.223 31.944 245.935 32.104C245.679 32.264 245.551 32.6 245.551 33.112V42.328C245.551 43.736 245.823 44.808 246.367 45.544C246.911 46.248 247.679 46.6 248.671 46.6C249.567 46.6 250.239 46.52 250.687 46.36C251.167 46.2 251.599 46.008 251.983 45.784C252.079 45.72 252.159 45.688 252.223 45.688C252.383 45.688 252.495 45.784 252.559 45.976C252.655 46.168 252.703 46.376 252.703 46.6C252.703 46.76 252.383 47.096 251.743 47.608C251.135 48.12 250.319 48.584 249.295 49C248.303 49.448 247.231 49.672 246.079 49.672ZM263.285 49.672C261.621 49.672 260.117 49.24 258.773 48.376C257.429 47.512 256.357 46.328 255.557 44.824C254.789 43.288 254.405 41.576 254.405 39.688C254.405 37.608 254.885 35.736 255.845 34.072C256.805 32.376 258.069 31.032 259.637 30.04C261.237 29.048 263.013 28.552 264.965 28.552C267.397 28.552 269.445 29.32 271.109 30.856C271.429 31.144 271.589 31.432 271.589 31.72C271.589 31.944 271.461 32.232 271.205 32.584C270.949 32.936 270.645 33.24 270.293 33.496C269.941 33.752 269.637 33.88 269.381 33.88C269.125 33.88 268.885 33.8 268.661 33.64C268.437 33.48 268.213 33.304 267.989 33.112C267.189 32.472 266.357 31.928 265.493 31.48C264.629 31.032 263.893 30.808 263.285 30.808C261.973 30.808 260.949 31.384 260.213 32.536C259.477 33.688 259.109 35.416 259.109 37.72C259.109 39.288 259.381 40.648 259.925 41.8C260.469 42.952 261.237 43.848 262.229 44.488C263.221 45.128 264.373 45.448 265.685 45.448C266.645 45.448 267.461 45.304 268.133 45.016C268.837 44.696 269.573 44.2 270.341 43.528C270.469 43.432 270.581 43.352 270.677 43.288C270.805 43.192 270.933 43.144 271.061 43.144C271.413 43.144 271.589 43.4 271.589 43.912C271.589 44.04 271.557 44.232 271.493 44.488C271.429 44.712 271.301 44.968 271.109 45.256C270.757 45.896 270.181 46.568 269.381 47.272C268.613 47.976 267.717 48.552 266.693 49C265.669 49.448 264.533 49.672 263.285 49.672ZM274.292 49.144C273.652 49.144 273.332 48.936 273.332 48.52C273.332 48.168 273.7 47.864 274.436 47.608C274.916 47.448 275.348 47.272 275.732 47.08C276.148 46.856 276.356 46.408 276.356 45.736V22.36C276.356 21.496 276.228 20.744 275.972 20.104C275.748 19.464 275.22 19.064 274.388 18.904C274.068 18.84 273.908 18.6 273.908 18.184C273.908 17.832 274.052 17.608 274.34 17.512C274.98 17.352 275.716 17.144 276.548 16.888C277.412 16.6 278.244 16.312 279.044 16.024C279.876 15.704 280.548 15.464 281.06 15.304C281.284 15.208 281.444 15.16 281.54 15.16C281.732 15.16 281.86 15.208 281.924 15.304C281.988 15.4 282.02 15.512 282.02 15.64C282.02 15.832 281.988 16.088 281.924 16.408C281.86 16.728 281.796 17.176 281.732 17.752C281.7 18.296 281.684 19.048 281.684 20.008V30.232C281.684 30.616 281.7 30.936 281.732 31.192C281.764 31.416 281.844 31.592 281.972 31.72C282.452 31.336 283.044 30.904 283.748 30.424C284.452 29.912 285.252 29.48 286.148 29.128C287.044 28.744 288.02 28.552 289.076 28.552C290.74 28.552 292.116 29.16 293.204 30.376C294.324 31.592 294.884 33.224 294.884 35.272V45.592C294.884 46.264 295.076 46.728 295.46 46.984C295.844 47.24 296.26 47.448 296.708 47.608C297.06 47.736 297.316 47.864 297.476 47.992C297.668 48.12 297.764 48.296 297.764 48.52C297.764 48.936 297.428 49.144 296.756 49.144C296.02 49.144 295.428 49.112 294.98 49.048C294.564 49.016 294.164 48.984 293.78 48.952C293.396 48.92 292.868 48.904 292.196 48.904C291.556 48.904 291.044 48.92 290.66 48.952C290.308 48.984 289.94 49.016 289.556 49.048C289.172 49.112 288.612 49.144 287.876 49.144C287.172 49.144 286.82 48.92 286.82 48.472C286.82 48.248 286.916 48.072 287.108 47.944C287.3 47.816 287.54 47.704 287.828 47.608C288.276 47.48 288.676 47.272 289.028 46.984C289.38 46.696 289.556 46.216 289.556 45.544V35.992C289.556 35.256 289.38 34.6 289.028 34.024C288.676 33.416 288.228 32.936 287.684 32.584C287.172 32.232 286.612 32.056 286.004 32.056C285.492 32.056 284.916 32.136 284.276 32.296C283.636 32.456 283.06 32.728 282.548 33.112C282.196 33.368 281.956 33.656 281.828 33.976C281.732 34.264 281.684 34.744 281.684 35.416V45.688C281.716 46.328 281.892 46.776 282.212 47.032C282.564 47.256 282.948 47.448 283.364 47.608C283.684 47.704 283.924 47.816 284.084 47.944C284.276 48.072 284.372 48.248 284.372 48.472C284.372 48.92 284.084 49.144 283.508 49.144C282.868 49.144 282.308 49.112 281.828 49.048C281.348 49.016 280.884 48.984 280.436 48.952C280.02 48.92 279.524 48.904 278.948 48.904C278.404 48.904 277.892 48.92 277.412 48.952C276.964 48.984 276.484 49.016 275.972 49.048C275.492 49.112 274.932 49.144 274.292 49.144Z" fill="#F5F5F5"/>
</svg>
